HIERARCHY
ROOT Hips
{
 OFFSET 0.000000 0.000000 0.000000
 CHANNELS 6 Xposition Yposition Zposition Yrotation Xrotation Zrotation
 JOINT Chest
 {
  OFFSET 0.000000 10.354800 0.006500
  CHANNELS 3 Yrotation Xrotation Zrotation
  JOINT Chest2
  {
   OFFSET 0.000000 10.435800 -0.013200
   CHANNELS 3 Yrotation Xrotation Zrotation
   JOINT Chest3
   {
    OFFSET 0.000000 10.393700 0.000000
    CHANNELS 3 Yrotation Xrotation Zrotation
    JOINT Chest4
    {
     OFFSET 0.000000 10.383100 0.000000
     CHANNELS 3 Yrotation Xrotation Zrotation
     JOINT Neck
     {
      OFFSET 0.000000 15.694000 0.000000
      CHANNELS 3 Yrotation Xrotation Zrotation
      JOINT Head
      {
       OFFSET 0.000000 9.711000 -0.028000
       CHANNELS 3 Yrotation Xrotation Zrotation
       End Site
       {
        OFFSET 0.000000 18.578700 -0.014800
       }
      }
     }
     JOINT RightCollar
     {
      OFFSET -3.157200 10.367500 0.000000
      CHANNELS 3 Yrotation Xrotation Zrotation
      JOINT RightShoulder
      {
       OFFSET -14.482500 0.000000 0.000000
       CHANNELS 3 Yrotation Xrotation Zrotation
       JOINT RightElbow
       {
        OFFSET 0.000000 -31.707800 0.000000
        CHANNELS 3 Yrotation Xrotation Zrotation
        JOINT RightWrist
        {
         OFFSET 0.000000 -25.659300 0.000000
         CHANNELS 3 Yrotation Xrotation Zrotation
         End Site
         {
          OFFSET 0.000000 -18.994300 0.000000
         }
        }
       }
      }
     }
     JOINT LeftCollar
     {
      OFFSET 3.157200 10.367500 0.000000
      CHANNELS 3 Yrotation Xrotation Zrotation
      JOINT LeftShoulder
      {
       OFFSET 14.482500 0.000000 0.000000
       CHANNELS 3 Yrotation Xrotation Zrotation
       JOINT LeftElbow
       {
        OFFSET 0.000000 -31.707800 0.000000
        CHANNELS 3 Yrotation Xrotation Zrotation
        JOINT LeftWrist
        {
         OFFSET 0.000000 -25.659300 0.000000
         CHANNELS 3 Yrotation Xrotation Zrotation
         End Site
         {
          OFFSET 0.000000 -18.994300 0.000000
         }
        }
       }
      }
     }
    }
   }
  }
 }
 JOINT RightHip
 {
  OFFSET -8.365600 -0.032100 -0.003200
  CHANNELS 3 Yrotation Xrotation Zrotation
  JOINT RightKnee
  {
   OFFSET 0.000000 -43.980000 0.003100
   CHANNELS 3 Yrotation Xrotation Zrotation
   JOINT RightAnkle
   {
    OFFSET 0.000000 -42.882800 0.005200
    CHANNELS 3 Yrotation Xrotation Zrotation
    JOINT RightToe
    {
     OFFSET 0.000000 -4.915500 10.826300
     CHANNELS 3 Yrotation Xrotation Zrotation
     End Site
     {
      OFFSET 0.000000 -1.517500 6.175900
     }
    }
   }
  }
 }
 JOINT LeftHip
 {
  OFFSET 8.365600 -0.032100 -0.003200
  CHANNELS 3 Yrotation Xrotation Zrotation
  JOINT LeftKnee
  {
   OFFSET 0.000000 -43.980000 0.003100
   CHANNELS 3 Yrotation Xrotation Zrotation
   JOINT LeftAnkle
   {
    OFFSET 0.000000 -42.882800 0.005200
    CHANNELS 3 Yrotation Xrotation Zrotation
    JOINT LeftToe
    {
     OFFSET 0.000000 -4.915500 10.826300
     CHANNELS 3 Yrotation Xrotation Zrotation
     End Site
     {
      OFFSET 0.000000 -1.517500 6.175900
     }
    }
   }
  }
 }
}
MOTION
Frames: 12
Frame Time: 0.008333
-7.278438 126.658671 29.764550 177.928660 -22.876323 -5.210286 3.946689 11.103561 -2.000988 0.293678 0.800403 -0.170124 0.509259 1.370280 -0.289020 3.618599 10.143880 -1.859865 1.976322 32.108128 -4.664900 3.271434 10.860415 -5.663849 9.406265 5.753088 -7.354831 41.073534 -47.731654 -25.652161 -155.500588 -54.667366 -178.753423 -11.696898 -16.135945 -49.663416 -4.263270 9.723294 2.165384 -20.405911 -33.847038 10.146036 -40.293606 -28.989150 29.780841 -9.908985 5.328843 13.940685 7.522757 -54.503565 -7.223511 -136.049902 77.379218 -129.676745 -1.109288 -21.003750 4.597363 0.003125 -0.005432 0.001419 -17.962575 -56.630420 14.390267 118.857662 79.861094 115.563645 -3.375801 -15.502956 -1.684914 0.004296 -0.000437 0.001951
-7.278852 126.658510 29.766014 177.917268 -22.881555 -5.200204 3.953038 11.108320 -2.007006 0.290584 0.800768 -0.169842 0.513851 1.370481 -0.289367 3.627578 10.155257 -1.855130 1.976093 32.064918 -4.621281 3.258785 10.834595 -5.649050 9.395269 5.744365 -7.359135 41.050951 -47.742902 -25.629956 -155.514841 -54.663428 -178.730479 -11.663485 -16.090445 -49.635084 -4.279233 9.705745 2.166793 -20.445533 -33.873899 10.166387 -40.285223 -28.941943 29.736691 -9.903713 5.332866 13.972711 7.537309 -54.507327 -7.242842 -136.113197 77.380108 -129.741493 -1.104308 -21.003502 4.597514 -0.000742 -0.008058 -0.000337 -17.940234 -56.628338 14.367010 118.831594 79.853125 115.541840 -3.387075 -15.502010 -1.679928 0.002814 -0.000618 0.001277
-7.277366 126.659039 29.766413 177.897436 -22.893767 -5.196358 3.964165 11.116468 -2.003375 0.293832 0.803787 -0.170206 0.516492 1.369672 -0.289367 3.628345 10.162219 -1.848763 1.971635 32.045498 -4.607522 3.250522 10.806336 -5.631982 9.392254 5.739544 -7.352397 41.058576 -47.737292 -25.639778 -155.532695 -54.654863 -178.719765 -11.647179 -16.054168 -49.610467 -4.290043 9.699152 2.170237 -20.473564 -33.908184 10.181980 -40.275700 -28.899400 29.697740 -9.901266 5.339339 13.998208 7.547962 -54.500239 -7.234745 -136.110972 77.373132 -129.735737 -1.103255 -21.007103 4.602888 -0.000489 -0.005676 -0.000222 -17.917675 -56.616231 14.353984 118.823929 79.847215 115.542311 -3.384397 -15.506514 -1.684575 0.001758 -0.000894 0.000798
-7.274784 126.659112 29.768134 177.884723 -22.896751 -5.200983 3.969862 11.119736 -1.995175 0.299873 0.802186 -0.170025 0.502428 1.376121 -0.286856 3.636626 10.163747 -1.845014 1.968054 32.029903 -4.601810 3.246569 10.795207 -5.631270 9.393345 5.734219 -7.349002 41.036048 -47.741118 -25.620715 -155.566483 -54.629712 -178.710652 -11.656941 -15.991603 -49.550698 -4.291651 9.693466 2.166699 -20.553973 -33.957156 10.224307 -40.220699 -28.841096 29.649743 -9.916378 5.345466 14.029997 7.530578 -54.508533 -7.208602 -136.139640 77.375915 -129.761179 -1.106948 -21.003603 4.592455 0.002850 -0.006581 0.001294 -17.913727 -56.612095 14.354578 118.818491 79.843555 115.547127 -3.372555 -15.511150 -1.692111 0.000089 -0.000865 0.000040
-7.272565 126.659762 29.768307 177.860431 -22.908439 -5.198148 3.980871 11.130312 -1.989591 0.300352 0.803068 -0.169715 0.501127 1.376908 -0.287676 3.643541 10.166312 -1.841988 1.969173 32.021622 -4.603271 3.239894 10.779915 -5.618866 9.391019 5.732270 -7.342026 40.941503 -47.761939 -25.539804 -155.532795 -54.616765 -178.686820 -11.642539 -15.941656 -49.498944 -4.292956 9.690987 2.165668 -20.573186 -33.976853 10.235289 -40.211008 -28.818764 29.627687 -9.909703 5.348428 14.055213 7.527523 -54.505614 -7.185347 -136.154009 77.375698 -129.778923 -1.103263 -21.005095 4.589761 0.000897 -0.005276 0.000407 -17.889427 -56.593713 14.348369 118.757317 79.838350 115.493824 -3.374487 -15.515151 -1.699036 -0.000874 0.001640 -0.000397
-7.269234 126.659930 29.769710 177.849937 -22.910406 -5.206307 3.979086 11.130719 -1.980573 0.300617 0.803949 -0.169437 0.498679 1.378896 -0.287222 3.656620 10.164549 -1.841759 1.953886 32.013974 -4.591106 3.194610 10.744616 -5.578841 9.387501 5.732462 -7.336722 40.915287 -47.767180 -25.513922 -155.554121 -54.606776 -178.675153 -11.641565 -15.892016 -49.435179 -4.299783 9.693151 2.170190 -20.569478 -33.987630 10.233403 -40.207189 -28.811775 29.619745 -9.907740 5.349271 14.064670 7.495318 -54.511562 -7.155296 -136.174372 77.384004 -129.782281 -1.098011 -21.002965 4.555275 0.007438 -0.003958 0.003377 -17.895389 -56.586955 14.368985 118.748017 79.836477 115.489021 -3.375720 -15.516614 -1.703566 0.000243 0.002631 0.000110
-7.266712 126.660238 29.770318 177.817762 -22.916842 -5.200416 3.991073 11.135517 -1.977046 0.300667 0.804730 -0.169566 0.512917 1.376955 -0.287590 3.641545 10.172878 -1.840416 1.929729 32.002454 -4.582588 3.187807 10.735293 -5.587557 9.398331 5.725818 -7.335145 40.920137 -47.766211 -25.515643 -155.585327 -54.599789 -178.669480 -11.626545 -15.841522 -49.372464 -4.291137 9.687206 2.172321 -20.598300 -34.003037 10.250511 -40.188951 -28.798858 29.591773 -9.896725 5.372502 14.115595 7.489740 -54.514706 -7.125852 -136.177025 77.386498 -129.791519 -1.094695 -21.004236 4.552476 0.003612 -0.001006 0.001640 -17.870134 -56.579728 14.377887 118.747802 79.836863 115.491166 -3.370897 -15.515538 -1.701654 0.000888 0.000395 0.000403
-7.265252 126.659963 29.771786 177.796863 -22.915058 -5.192089 3.992275 11.135460 -1.978606 0.281700 0.809754 -0.165873 0.531537 1.372340 -0.290924 3.623516 10.182153 -1.829574 1.936559 31.988262 -4.602655 3.171118 10.731180 -5.579889 9.409179 5.720543 -7.342600 40.909141 -47.759790 -25.496574 -155.588621 -54.587086 -178.642770 -11.584739 -15.798477 -49.330733 -4.269157 9.675228 2.158512 -20.628127 -34.012759 10.263919 -40.163360 -28.784822 29.577112 -9.890200 5.377036 14.153141 7.464258 -54.535938 -7.093876 -136.204025 77.381735 -129.840589 -1.090799 -21.001060 4.551641 0.000442 -0.004944 0.000201 -17.848932 -56.581800 14.377924 118.729865 79.833100 115.479095 -3.380015 -15.515859 -1.704328 0.001719 -0.001342 0.000781
-7.262972 126.659961 29.772668 177.777434 -22.915911 -5.187517 3.976107 11.141465 -1.975669 0.301664 0.805438 -0.169204 0.526171 1.374031 -0.291049 3.623708 10.182886 -1.823689 1.920099 31.985552 -4.607978 3.150497 10.730087 -5.584077 9.413857 5.722703 -7.340859 40.903964 -47.752271 -25.491047 -155.649789 -54.571071 -178.612313 -11.583261 -15.747140 -49.262685 -4.257930 9.669542 2.148734 -20.633867 -34.014885 10.263774 -40.164909 -28.780926 29.567627 -9.885284 5.382380 14.197308 7.461849 -54.544431 -7.078908 -136.232193 77.382249 -129.869023 -1.084997 -21.004541 4.547298 -0.001836 -0.003915 -0.000834 -17.833913 -56.580411 14.382730 118.721257 79.822354 115.475724 -3.390825 -15.519146 -1.708696 0.001487 -0.003269 0.000675
-7.259796 126.660036 29.773571 177.763238 -22.916237 -5.188626 3.964352 11.144428 -1.966717 0.322586 0.801619 -0.175224 0.490160 1.381625 -0.278877 3.636863 10.178638 -1.828356 1.908378 31.985809 -4.617611 3.120345 10.732737 -5.584344 9.415708 5.721507 -7.340016 40.910590 -47.741377 -25.490075 -155.739356 -54.563679 -178.596551 -11.623047 -15.700774 -49.157150 -4.242865 9.664927 2.136475 -20.642927 -34.005550 10.265325 -40.149989 -28.777826 29.566169 -9.877164 5.383766 14.267720 7.460550 -54.549277 -7.067178 -136.238831 77.380246 -129.855962 -1.076716 -21.006233 4.530663 0.002327 -0.000355 0.001057 -17.819656 -56.573807 14.387385 118.687543 79.822278 115.448622 -3.391645 -15.523942 -1.713082 0.000942 -0.001762 0.000428
-7.258688 126.660117 29.773981 177.756356 -22.918510 -5.179679 3.958116 11.147483 -1.971898 0.312310 0.805093 -0.172067 0.499522 1.377960 -0.281929 3.614223 10.178485 -1.822438 1.864198 31.993211 -4.621273 3.132190 10.728920 -5.621719 9.382714 5.710967 -7.308370 40.941629 -47.694219 -25.501973 -155.715490 -54.535656 -178.616705 -11.623767 -15.657843 -49.075568 -4.225810 9.668070 2.127846 -20.642645 -33.995417 10.261484 -40.141228 -28.782177 29.580165 -9.870009 5.390091 14.306417 7.453396 -54.556173 -7.062724 -136.258359 77.376418 -129.884712 -1.069967 -21.007182 4.530139 -0.002462 -0.000808 -0.001118 -17.785655 -56.564393 14.362109 118.621836 79.821344 115.388739 -3.396021 -15.530755 -1.714750 0.000294 0.002149 0.000133
-7.256767 126.660211 29.774693 177.743323 -22.921088 -5.171770 3.957581 11.148919 -1.973487 0.275927 0.803610 -0.157304 0.534254 1.379147 -0.297025 3.585190 10.178833 -1.815630 1.858851 31.993572 -4.635313 3.129298 10.730260 -5.636448 9.383268 5.697678 -7.293589 40.993082 -47.653477 -25.533578 -155.722925 -54.528053 -178.655950 -11.640936 -15.591700 -48.960935 -4.204600 9.670980 2.115509 -20.637910 -33.985304 10.259311 -40.138491 -28.789738 29.599540 -9.864375 5.395282 14.335483 7.426452 -54.563007 -7.039030 -136.266725 77.371581 -129.902332 -1.059991 -21.013307 4.519278 -0.003187 0.000465 -0.001447 -17.761314 -56.557994 14.355544 118.601922 79.824815 115.369631 -3.401974 -15.532518 -1.714399 0.000306 0.002188 0.000139
